<?xml version="1.0" encoding="utf-8"?>
<!-- Generator: Adobe Illustrator 25.1.0, SVG Export Plug-In . SVG Version: 6.00 Build 0)  -->
<svg version="1.1" id="Livello_1" xmlns="http://www.w3.org/2000/svg" xmlns:xlink="http://www.w3.org/1999/xlink" x="0px" y="0px"
	 viewBox="0 0 40 40" style="enable-background:new 0 0 40 40;" xml:space="preserve">
<path d="M20,0L2.1,10v20L20,40l17.9-10V10L20,0z M35.3,28.6L20,37.1L4.7,28.6V11.4l5.7-3.2c1.1,0.3,2.1,0.9,3,1.7
	c1.4,1.4,2.1,3.1,2.1,5.2c0,1.4-0.4,2.8-1.2,4c-0.7,1.1-1.6,2-2.7,2.5c-0.3-0.5-0.7-0.8-1.3-1c-0.5-0.2-1.1-0.3-1.7-0.3
	c-0.6,0-1.1,0.1-1.6,0.4c-0.5,0.3-0.8,0.7-0.8,1.2c0,0.6,0.3,1,0.8,1.3c0.4,0.2,1,0.4,1.8,0.4c0.3,0,0.7,0,1-0.1
	c0.3-0.1,0.7-0.1,1-0.2c0.2,0.6,0.4,1.3,0.6,2.3c0.3,1.3,0.5,2.1,0.5,2.4c0.3,0.9,0.6,1.6,0.9,2.2c0.7,1.1,1.5,2,2.5,2.6
	c1.1,0.7,2.3,1,3.6,1c0.6,0,1.1-0.1,1.5-0.4c0.5-0.3,0.7-0.6,0.7-1.1c0-0.3-0.2-0.6-0.5-0.8c-0.3-0.2-0.6-0.3-0.8-0.2
	c-0.1,0-0.1,0.1-0.1,0.1c0,0,0,0.1,0.1,0.2c0.1,0.1,0.1,0.2,0.1,0.3c0,0.1,0,0.2,0,0.4c0,0.2-0.2,0.4-0.4,0.5
	C19.5,33,19.2,33,18.9,33c-0.7,0-1.4-0.3-2-1c-0.5-0.5-1-1.3-1.5-2.4c-0.2-0.5-0.6-1.4-1.1-2.7c-0.3-0.9-0.7-1.7-1-2.4
	c-0.3-0.7-0.7-1.3-1.1-1.8c1.6-0.7,2.9-1.7,4-3.1c1.2-1.6,1.8-3.3,1.8-5.1c0-2.2-0.9-4.1-2.8-5.6c-0.9-0.8-2-1.3-3.1-1.7L20,2.9
	l13.7,7.6l-4.2,4.7c0,0-0.4-0.4-1.3-1.3c-0.9-1-1.7-1.8-2.4-2.6c-0.9-1-1.4-1.8-1.6-2.2c0-0.1,0-0.1,0-0.1c0-0.2,0.1-0.4,0.4-0.6
	c0.1-0.1,0.4-0.3,0.6-0.5c0.1-0.1,0.1-0.1,0.1-0.2c0-0.1-0.1-0.2-0.4-0.2c-0.4,0-0.7,0.1-0.9,0.1c-0.3,0-0.6,0-1.1,0
	c-0.4,0-0.8,0-1.3,0c-0.4,0-0.7,0-0.8,0c-0.2,0-0.3,0.1-0.3,0.2c0,0.1,0,0.1,0.1,0.2C21,8,21.2,8.2,21.5,8.4
	c0.3,0.2,0.4,0.5,0.4,0.7l-2.7,19.3c0,0.2-0.2,0.4-0.4,0.6c-0.2,0.2-0.4,0.3-0.6,0.5c-0.1,0.1-0.2,0.2-0.2,0.3
	c0,0.1,0.1,0.2,0.4,0.2c0.4,0,0.7,0,0.9-0.1c0.3,0,0.6,0,1.1,0c0.2,0,0.6,0,1.1,0.1c0.5,0,0.8,0.1,0.9,0c0.2,0,0.3-0.1,0.3-0.2
	c0-0.1,0-0.2-0.1-0.2c-0.2-0.2-0.5-0.3-0.7-0.5c-0.3-0.2-0.4-0.4-0.4-0.6L23.7,11c0.2,0.5,0.6,1.3,1.3,2.3c0.7,1,1.6,2.2,2.8,3.6
	c-0.4,0.4-0.8,1-1.1,1.6c-0.4,0.8-0.6,1.5-0.6,2.2c0,1,0.3,1.9,0.8,2.6c0.6,0.8,1.3,1.2,2.3,1.2c0.9,0,1.7-0.4,2.3-1.2
	c0.6-0.8,0.8-1.7,0.8-2.7c0-0.8-0.2-1.6-0.7-2.5c-0.4-0.8-0.9-1.5-1.5-2.1l4.4-4.9l0.6,0.4V28.6z M10.3,22.3
	c-0.2,0.1-0.4,0.2-0.7,0.3c-0.3,0.1-0.6,0.1-0.8,0.1c-0.4,0-0.7,0-1-0.1c-0.3-0.1-0.5-0.3-0.5-0.6c0-0.2,0.1-0.4,0.4-0.5
	c0.2-0.1,0.5-0.2,0.8-0.2c0.4,0,0.8,0.1,1.1,0.3C10,21.7,10.2,22,10.3,22.3z M30.1,19.1c0.5,0.6,0.7,1.2,0.7,1.8
	c0,0.6-0.1,1.2-0.4,1.7c-0.3,0.5-0.7,0.8-1.2,0.8c-0.6,0-1-0.3-1.4-0.9c-0.3-0.5-0.4-1.1-0.4-1.8c0-0.6,0.2-1.1,0.5-1.7
	c0.2-0.4,0.6-0.8,1-1.2C29.3,18.2,29.7,18.6,30.1,19.1z"/>
</svg>
